<svg xmlns="http://www.w3.org/2000/svg" xmlns:xlink="http://www.w3.org/1999/xlink" viewBox="0 0 467 1080"><defs><style>.cls-1{fill:url(#Degradado_sin_nombre_46);}.cls-2{fill:#f5afcb;}.cls-3{fill:#8631ff;}.cls-4{opacity:0.4;}.cls-5{fill:url(#Degradado_sin_nombre_24);}.cls-6{fill:#7908ff;}.cls-7{opacity:0.5;}.cls-8{fill:url(#Degradado_sin_nombre_40);}</style><linearGradient id="Degradado_sin_nombre_46" x1="-153.25" y1="926.75" x2="620.25" y2="153.25" gradientUnits="userSpaceOnUse"><stop offset="0" stop-color="#f5afcb"/><stop offset="0.27" stop-color="#f4b8d3" stop-opacity="0.97"/><stop offset="0.71" stop-color="#f2d1ea" stop-opacity="0.87"/><stop offset="1" stop-color="#f0e6fc" stop-opacity="0.8"/></linearGradient><linearGradient id="Degradado_sin_nombre_24" x1="246.91" y1="496.29" x2="50.85" y2="692.35" gradientUnits="userSpaceOnUse"><stop offset="0" stop-color="#f5afcb"/><stop offset="0.1" stop-color="#e198d4"/><stop offset="0.28" stop-color="#c073e4"/><stop offset="0.47" stop-color="#a756f0"/><stop offset="0.65" stop-color="#9542f8"/><stop offset="0.83" stop-color="#8a35fd"/><stop offset="1" stop-color="#8631ff"/></linearGradient><linearGradient id="Degradado_sin_nombre_40" x1="135.72" y1="1129.4" x2="281.58" y2="728.64" gradientUnits="userSpaceOnUse"><stop offset="0" stop-color="#1f1d4c"/><stop offset="0.17" stop-color="#221e52" stop-opacity="0.99"/><stop offset="0.35" stop-color="#2c2063" stop-opacity="0.97"/><stop offset="0.53" stop-color="#3d2380" stop-opacity="0.94"/><stop offset="0.71" stop-color="#5427a9" stop-opacity="0.9"/><stop offset="0.9" stop-color="#722ddd" stop-opacity="0.84"/><stop offset="1" stop-color="#8631ff" stop-opacity="0.8"/></linearGradient></defs><g id="Capa_2" data-name="Capa 2"><g id="Capa_1-2" data-name="Capa 1"><rect class="cls-1" width="467" height="1080"/><path class="cls-2" d="M467,369.74a317.48,317.48,0,0,0-58-5.33c-174.45,0-315.88,141.42-315.88,315.88S234.56,996.17,409,996.17a317.48,317.48,0,0,0,58-5.33Z"/><path class="cls-3" d="M351.11,680c-18.27-36.32-33.55-76.61-67.59-100.78-58.29-41.4-155.24-23.59-197.19-79.9-25.42-34.11-17.72-80-21.84-121.55C59.7,329.61,35.69,284.11,0,249.42V641.51c17.83,2.76,35.87,5.42,51.09,14.82,26.9,16.62,42.49,52.75,73.83,57,24.67,3.34,48-15.6,72.83-13.47,30.71,2.64,48.75,34.47,72.23,54.44,24.09,20.5,56,29.15,87.14,34.52a550.89,550.89,0,0,0,83.17,7.86C402.13,764.73,373.05,723.63,351.11,680Z"/><g class="cls-4"><path class="cls-5" d="M351.11,680c-18.27-36.32-33.55-76.61-67.59-100.78-58.29-41.4-155.24-23.59-197.19-79.9-25.42-34.11-17.72-80-21.84-121.55C59.7,329.61,35.69,284.11,0,249.42V641.51c17.83,2.76,35.87,5.42,51.09,14.82,26.9,16.62,42.49,52.75,73.83,57,24.67,3.34,48-15.6,72.83-13.47,30.71,2.64,48.75,34.47,72.23,54.44,24.09,20.5,56,29.15,87.14,34.52a550.89,550.89,0,0,0,83.17,7.86C402.13,764.73,373.05,723.63,351.11,680Z"/></g><path class="cls-6" d="M0,1080H467V796.54a551.76,551.76,0,0,1-109.88-7.72c-31.17-5.37-63.05-14-87.14-34.52-23.48-20-41.52-51.8-72.23-54.44-24.81-2.13-48.16,16.81-72.83,13.47C93.58,709.08,78,673,51.09,656.33,35.87,646.93,17.83,644.27,0,641.51Z"/><g class="cls-7"><path class="cls-8" d="M0,1080H467V796.54a551.76,551.76,0,0,1-109.88-7.72c-31.17-5.37-63.05-14-87.14-34.52-23.48-20-41.52-51.8-72.23-54.44-24.81-2.13-48.16,16.81-72.83,13.47C93.58,709.08,78,673,51.09,656.33,35.87,646.93,17.83,644.27,0,641.51Z"/></g></g></g></svg>